<?xml version="1.0" encoding="UTF-8"?>
<svg xmlns="http://www.w3.org/2000/svg" xmlns:xlink="http://www.w3.org/1999/xlink" width="1200px" height="1200px" viewBox="0 0 1200 1200" version="1.1">
<g id="surface1">
<path style=" stroke:none;fill-rule:nonzero;fill:rgb(0%,0%,0%);fill-opacity:1;" d="M 449.597656 485.0625 C 448.398438 487.632812 446.800781 500.492188 446.398438 514.199219 C 445.199219 539.90625 432.402344 576.328125 413.203125 605.464844 C 396 632.886719 392.003906 627.742188 392.003906 577.613281 C 392.003906 523.199219 387.601562 506.0625 372.402344 496.207031 C 343.199219 477.785156 305.203125 499.632812 297.601562 539.054688 C 295.601562 550.191406 296.398438 552.761719 303.996094 555.335938 C 314.003906 558.761719 318 555.761719 327.199219 535.628906 C 332.800781 524.054688 336.402344 521.054688 345.996094 521.054688 L 357.996094 521.054688 L 360.402344 576.757812 C 363.601562 644.457031 362.398438 637.171875 372 647.457031 C 380.800781 656.878906 398.800781 658.59375 408 650.457031 C 419.203125 641.027344 442.398438 607.179688 453.199219 585.328125 C 474.402344 542.050781 481.199219 507.347656 471.996094 488.492188 C 467.203125 479.496094 453.996094 477.355469 449.597656 485.0625 Z M 449.597656 485.0625 "/>
<path style=" stroke:none;fill-rule:nonzero;fill:rgb(0%,0%,0%);fill-opacity:1;" d="M 504.402344 520.628906 C 493.199219 534.769531 513.199219 556.191406 526.398438 544.191406 C 529.601562 541.191406 531.996094 533.914062 531.199219 527.914062 C 530.398438 519.339844 527.597656 516.339844 519.601562 515.484375 C 513.996094 514.628906 507.199219 517.199219 504.402344 520.628906 Z M 504.402344 520.628906 "/>
<path style=" stroke:none;fill-rule:nonzero;fill:rgb(0%,0%,0%);fill-opacity:1;" d="M 656.003906 521.054688 C 644.800781 535.628906 666.402344 557.050781 678.796875 543.335938 C 687.996094 533.484375 682.398438 514.628906 670.398438 514.628906 C 665.203125 514.628906 658.800781 517.628906 656.003906 521.054688 Z M 656.003906 521.054688 "/>
<path style=" stroke:none;fill-rule:nonzero;fill:rgb(0%,0%,0%);fill-opacity:1;" d="M 564.402344 560.050781 C 560.003906 566.476562 555.996094 572.898438 555.996094 574.613281 C 555.996094 579.757812 514.398438 621.75 509.203125 621.75 C 502.398438 621.75 502.800781 616.605469 510.796875 588.328125 C 517.601562 566.050781 517.601562 564.761719 510.402344 559.191406 C 498.402344 550.191406 489.601562 558.761719 480 589.613281 C 470.398438 620.464844 471.601562 635.886719 483.996094 643.171875 C 497.203125 650.886719 512.800781 643.171875 539.203125 616.179688 C 552.796875 602.035156 564.796875 591.328125 566.003906 592.613281 C 567.199219 593.472656 569.203125 600.75 570.402344 608.464844 C 573.199219 622.179688 572.800781 622.605469 560.003906 620.894531 C 550.800781 620.035156 545.597656 621.75 542.398438 627.316406 C 531.199219 646.601562 576.796875 656.023438 593.203125 637.601562 C 597.996094 632.027344 606.796875 624.320312 612.402344 620.035156 C 622.800781 613.179688 622.800781 613.179688 625.199219 626.035156 C 630 650.027344 656.800781 651.316406 679.199219 629.027344 L 688.800781 619.605469 L 696.402344 631.171875 C 712.800781 655.171875 747.601562 648.742188 765.601562 618.320312 C 770.800781 608.894531 779.203125 600.320312 783.601562 599.035156 C 793.199219 596.472656 793.199219 597.328125 788.398438 616.605469 C 783.199219 635.027344 786.402344 643.171875 798.402344 643.171875 C 805.601562 643.171875 810 638.886719 816 624.75 C 824.398438 605.894531 849.996094 575.472656 854.003906 579.757812 C 855.199219 581.042969 854.003906 590.898438 851.203125 601.605469 C 844.398438 629.457031 850.398438 643.171875 870.402344 643.171875 C 882 643.171875 888 639.742188 901.199219 626.035156 C 913.199219 612.75 915.996094 607.179688 912.796875 603.75 C 909.199219 599.894531 905.203125 601.605469 896.800781 610.179688 C 882 625.605469 874.398438 625.605469 877.601562 609.75 C 884.003906 582.757812 884.398438 575.042969 880.398438 566.90625 C 873.996094 553.621094 861.601562 552.761719 846 564.335938 C 836.398438 571.183594 831.996094 572.472656 831.996094 568.621094 C 831.996094 565.621094 829.601562 560.476562 826.398438 557.90625 C 819.199219 551.476562 804 558.761719 804 567.761719 C 804 574.613281 797.203125 581.042969 786 584.898438 C 779.597656 587.042969 776.800781 584.898438 773.203125 575.042969 C 759.996094 537.339844 714.796875 544.191406 693.996094 587.042969 C 687.199219 601.605469 666 621.75 657.601562 621.75 C 651.199219 621.75 653.203125 606.320312 662.800781 586.183594 C 669.199219 572.898438 666.796875 559.621094 657.996094 555.761719 C 648.402344 551.90625 641.597656 557.050781 636.402344 572.472656 C 630 591.757812 605.203125 613.179688 599.597656 604.179688 C 595.601562 597.328125 594.796875 592.183594 594.402344 568.191406 C 594 553.191406 592.800781 551.050781 583.601562 549.761719 C 576 548.90625 570.402344 551.476562 564.402344 560.050781 Z M 741.996094 611.035156 C 735.996094 621.320312 723.996094 624.75 720 617.464844 C 716.398438 611.464844 721.601562 589.613281 728.398438 580.613281 C 732 575.472656 734.003906 577.183594 740.003906 588.328125 C 745.199219 599.894531 745.601562 604.179688 741.996094 611.035156 Z M 741.996094 611.035156 "/>
</g>
</svg>
