<?xml version="1.0" encoding="utf-8"?>
<svg xmlns="http://www.w3.org/2000/svg" width="700px" height="700px" viewBox="0 0 700 700" version="1.1">
  <g id="surface1" transform="matrix(1, 0, 0, 1, -85.611923, -70.935661)">
    <path style=" stroke:none;fill-rule:nonzero;fill:rgb(0%,0%,0%);fill-opacity:1;" d="M 262.265625 282.953125 C 261.566406 284.453125 260.632812 291.953125 260.398438 299.949219 C 259.699219 314.945312 252.234375 336.191406 241.035156 353.1875 C 231 369.183594 228.667969 366.183594 228.667969 336.941406 C 228.667969 305.199219 226.101562 295.203125 217.234375 289.453125 C 200.199219 278.707031 178.035156 291.453125 173.601562 314.449219 C 172.433594 320.945312 172.898438 322.445312 177.332031 323.945312 C 183.167969 325.945312 185.5 324.195312 190.867188 312.449219 C 194.132812 305.699219 196.234375 303.949219 201.832031 303.949219 L 208.832031 303.949219 L 210.234375 336.441406 C 212.101562 375.933594 211.398438 371.683594 217 377.683594 C 222.132812 383.179688 232.632812 384.179688 238 379.433594 C 244.535156 373.933594 258.066406 354.1875 264.367188 341.441406 C 276.734375 316.195312 280.699219 295.953125 275.332031 284.953125 C 272.535156 279.707031 264.832031 278.457031 262.265625 282.953125 Z M 262.265625 282.953125 "/>
    <path style=" stroke:none;fill-rule:nonzero;fill:rgb(0%,0%,0%);fill-opacity:1;" d="M 294.234375 303.699219 C 287.699219 311.949219 299.367188 324.445312 307.066406 317.445312 C 308.933594 315.695312 310.332031 311.449219 309.867188 307.949219 C 309.398438 302.949219 307.765625 301.199219 303.101562 300.699219 C 299.832031 300.199219 295.867188 301.699219 294.234375 303.699219 Z M 294.234375 303.699219 "/>
    <path style=" stroke:none;fill-rule:nonzero;fill:rgb(0%,0%,0%);fill-opacity:1;" d="M 382.667969 303.949219 C 376.132812 312.449219 388.734375 324.945312 395.964844 316.945312 C 401.332031 311.199219 398.066406 300.199219 391.066406 300.199219 C 388.035156 300.199219 384.300781 301.949219 382.667969 303.949219 Z M 382.667969 303.949219 "/>
    <path style=" stroke:none;fill-rule:nonzero;fill:rgb(0%,0%,0%);fill-opacity:1;" d="M 329.234375 326.695312 C 326.667969 330.445312 324.332031 334.191406 324.332031 335.191406 C 324.332031 338.191406 300.066406 362.6875 297.035156 362.6875 C 293.066406 362.6875 293.300781 359.6875 297.964844 343.191406 C 301.933594 330.195312 301.933594 329.445312 297.734375 326.195312 C 290.734375 320.945312 285.601562 325.945312 280 343.941406 C 274.398438 361.9375 275.101562 370.933594 282.332031 375.183594 C 290.035156 379.683594 299.132812 375.183594 314.535156 359.4375 C 322.464844 351.1875 329.464844 344.941406 330.167969 345.691406 C 330.867188 346.191406 332.035156 350.4375 332.734375 354.9375 C 334.367188 362.9375 334.132812 363.1875 326.667969 362.1875 C 321.300781 361.6875 318.265625 362.6875 316.398438 365.933594 C 309.867188 377.183594 336.464844 382.679688 346.035156 371.933594 C 348.832031 368.683594 353.964844 364.1875 357.234375 361.6875 C 363.300781 357.6875 363.300781 357.6875 364.699219 365.1875 C 367.5 379.183594 383.132812 379.933594 396.199219 366.933594 L 401.800781 361.4375 L 406.234375 368.183594 C 415.800781 382.183594 436.101562 378.433594 446.601562 360.6875 C 449.632812 355.1875 454.535156 350.1875 457.101562 349.4375 C 462.699219 347.941406 462.699219 348.441406 459.898438 359.6875 C 456.867188 370.433594 458.734375 375.183594 465.734375 375.183594 C 469.933594 375.183594 472.5 372.683594 476 364.4375 C 480.898438 353.4375 495.832031 335.691406 498.167969 338.191406 C 498.867188 338.941406 498.167969 344.691406 496.535156 350.9375 C 492.566406 367.183594 496.066406 375.183594 507.734375 375.183594 C 514.5 375.183594 518 373.183594 525.699219 365.1875 C 532.699219 357.4375 534.332031 354.1875 532.464844 352.1875 C 530.367188 349.9375 528.035156 350.9375 523.132812 355.9375 C 514.5 364.9375 510.066406 364.9375 511.933594 355.6875 C 515.667969 339.941406 515.898438 335.441406 513.566406 330.695312 C 509.832031 322.945312 502.601562 322.445312 493.5 329.195312 C 487.898438 333.191406 485.332031 333.941406 485.332031 331.695312 C 485.332031 329.945312 483.933594 326.945312 482.066406 325.445312 C 477.867188 321.695312 469 325.945312 469 331.195312 C 469 335.191406 465.035156 338.941406 458.5 341.191406 C 454.765625 342.441406 453.132812 341.191406 451.035156 335.441406 C 443.332031 313.449219 416.964844 317.445312 404.832031 342.441406 C 400.867188 350.9375 388.5 362.6875 383.601562 362.6875 C 379.867188 362.6875 381.035156 353.6875 386.632812 341.941406 C 390.367188 334.191406 388.964844 326.445312 383.832031 324.195312 C 378.234375 321.945312 374.265625 324.945312 371.234375 333.941406 C 367.5 345.191406 353.035156 357.6875 349.765625 352.4375 C 347.433594 348.441406 346.964844 345.441406 346.734375 331.445312 C 346.5 322.695312 345.800781 321.445312 340.433594 320.695312 C 336 320.195312 332.734375 321.695312 329.234375 326.695312 Z M 432.832031 356.4375 C 429.332031 362.4375 422.332031 364.4375 420 360.1875 C 417.898438 356.6875 420.933594 343.941406 424.898438 338.691406 C 427 335.691406 428.167969 336.691406 431.667969 343.191406 C 434.699219 349.9375 434.933594 352.4375 432.832031 356.4375 Z M 432.832031 356.4375 "/>
  </g>
</svg>