<?xml version="1.0" encoding="UTF-8" standalone="no" ?>
<!DOCTYPE svg PUBLIC "-//W3C//DTD SVG 1.1//EN" "http://www.w3.org/Graphics/SVG/1.1/DTD/svg11.dtd">
<svg xmlns="http://www.w3.org/2000/svg" xmlns:xlink="http://www.w3.org/1999/xlink" version="1.1" width="1080" height="1080" viewBox="0 0 1080 1080" xml:space="preserve">
<desc>Created with Fabric.js 5.2.4</desc>
<defs>
</defs>
<g transform="matrix(1 0 0 1 540 540)" id="c1f326c5-b7d1-4f7e-aa56-e324e9d1f27d"  >
<rect style="stroke: none; stroke-width: 1; stroke-dasharray: none; stroke-linecap: butt; stroke-dashoffset: 0; stroke-linejoin: miter; stroke-miterlimit: 4; fill: rgb(255,255,255); fill-rule: nonzero; opacity: 1; visibility: hidden;" vector-effect="non-scaling-stroke"  x="-540" y="-540" rx="0" ry="0" width="1080" height="1080" />
</g>
<g transform="matrix(1 0 0 1 540 540)" id="6e79c574-cd6e-4498-b0fc-8978692b0b1c"  >
</g>
<g transform="matrix(1.01 0 0 1 541.35 540)"  >
<g style="" vector-effect="non-scaling-stroke"   >
		<g transform="matrix(0.13 0 0 -0.13 -73 0)"  >
<path style="stroke: none; stroke-width: 1; stroke-dasharray: none; stroke-linecap: butt; stroke-dashoffset: 0; stroke-linejoin: miter; stroke-miterlimit: 4; fill: rgb(0,0,0); fill-rule: nonzero; opacity: 1;" vector-effect="non-scaling-stroke"  transform=" translate(-965.84, -1565.44)" d="M 1124 1759 C 1121 1753 1117 1723 1116 1691 C 1113 1631 1081 1546 1033 1478 C 990 1414 980 1426 980 1543 C 980 1670 969 1710 931 1733 C 858 1776 763 1725 744 1633 C 739 1607 741 1601 760 1595 C 785 1587 795 1594 818 1641 C 832 1668 841 1675 865 1675 L 895 1675 L 901 1545 C 909 1387 906 1404 930 1380 C 952 1358 997 1354 1020 1373 C 1048 1395 1106 1474 1133 1525 C 1186 1626 1203 1707 1180 1751 C 1168 1772 1135 1777 1124 1759 z" stroke-linecap="round" />
</g>
		<g transform="matrix(0.13 0 0 -0.13 -29.7 -11.35)"  >
<path style="stroke: none; stroke-width: 1; stroke-dasharray: none; stroke-linecap: butt; stroke-dashoffset: 0; stroke-linejoin: miter; stroke-miterlimit: 4; fill: rgb(0,0,0); fill-rule: nonzero; opacity: 1;" vector-effect="non-scaling-stroke"  transform=" translate(-1290.59, -1650.59)" d="M 1261 1676 C 1233 1643 1283 1593 1316 1621 C 1324 1628 1330 1645 1328 1659 C 1326 1679 1319 1686 1299 1688 C 1285 1690 1268 1684 1261 1676 z" stroke-linecap="round" />
</g>
		<g transform="matrix(0.13 0 0 -0.13 20.93 -11.46)"  >
<path style="stroke: none; stroke-width: 1; stroke-dasharray: none; stroke-linecap: butt; stroke-dashoffset: 0; stroke-linejoin: miter; stroke-miterlimit: 4; fill: rgb(0,0,0); fill-rule: nonzero; opacity: 1;" vector-effect="non-scaling-stroke"  transform=" translate(-1670.33, -1651.37)" d="M 1640 1675 C 1612 1641 1666 1591 1697 1623 C 1720 1646 1706 1690 1676 1690 C 1663 1690 1647 1683 1640 1675 z" stroke-linecap="round" />
</g>
		<g transform="matrix(0.13 0 0 -0.13 29.5 9.51)"  >
<path style="stroke: none; stroke-width: 1; stroke-dasharray: none; stroke-linecap: butt; stroke-dashoffset: 0; stroke-linejoin: miter; stroke-miterlimit: 4; fill: rgb(0,0,0); fill-rule: nonzero; opacity: 1;" vector-effect="non-scaling-stroke"  transform=" translate(-1734.57, -1494.1)" d="M 1411 1584 C 1400 1569 1390 1554 1390 1550 C 1390 1538 1286 1440 1273 1440 C 1256 1440 1257 1452 1277 1518 C 1294 1570 1294 1573 1276 1586 C 1246 1607 1224 1587 1200 1515 C 1176 1443 1179 1407 1210 1390 C 1243 1372 1282 1390 1348 1453 C 1382 1486 1412 1511 1415 1508 C 1418 1506 1423 1489 1426 1471 C 1433 1439 1432 1438 1400 1442 C 1377 1444 1364 1440 1356 1427 C 1328 1382 1442 1360 1483 1403 C 1495 1416 1517 1434 1531 1444 C 1557 1460 1557 1460 1563 1430 C 1575 1374 1642 1371 1698 1423 L 1722 1445 L 1741 1418 C 1782 1362 1869 1377 1914 1448 C 1927 1470 1948 1490 1959 1493 C 1983 1499 1983 1497 1971 1452 C 1958 1409 1966 1390 1996 1390 C 2014 1390 2025 1400 2040 1433 C 2061 1477 2125 1548 2135 1538 C 2138 1535 2135 1512 2128 1487 C 2111 1422 2126 1390 2176 1390 C 2205 1390 2220 1398 2253 1430 C 2283 1461 2290 1474 2282 1482 C 2273 1491 2263 1487 2242 1467 C 2205 1431 2186 1431 2194 1468 C 2210 1531 2211 1549 2201 1568 C 2185 1599 2154 1601 2115 1574 C 2091 1558 2080 1555 2080 1564 C 2080 1571 2074 1583 2066 1589 C 2048 1604 2010 1587 2010 1566 C 2010 1550 1993 1535 1965 1526 C 1949 1521 1942 1526 1933 1549 C 1900 1637 1787 1621 1735 1521 C 1718 1487 1665 1440 1644 1440 C 1628 1440 1633 1476 1657 1523 C 1673 1554 1667 1585 1645 1594 C 1621 1603 1604 1591 1591 1555 C 1575 1510 1513 1460 1499 1481 C 1489 1497 1487 1509 1486 1565 C 1485 1600 1482 1605 1459 1608 C 1440 1610 1426 1604 1411 1584 z M 1855 1465 C 1840 1441 1810 1433 1800 1450 C 1791 1464 1804 1515 1821 1536 C 1830 1548 1835 1544 1850 1518 C 1863 1491 1864 1481 1855 1465 z" stroke-linecap="round" />
</g>
</g>
</g>
</svg>