<?xml version="1.0" encoding="UTF-8" standalone="no" ?>
<!DOCTYPE svg PUBLIC "-//W3C//DTD SVG 1.1//EN" "http://www.w3.org/Graphics/SVG/1.1/DTD/svg11.dtd">
<svg xmlns="http://www.w3.org/2000/svg" xmlns:xlink="http://www.w3.org/1999/xlink" version="1.1" width="1280" height="1024" viewBox="0 0 1280 1024" xml:space="preserve">
<desc>Created with Fabric.js 5.3.0</desc>
<defs>
</defs>
<g transform="matrix(1 0 0 1 640 512)" id="background-logo"  >
<rect style="stroke: none; stroke-width: 0; stroke-dasharray: none; stroke-linecap: butt; stroke-dashoffset: 0; stroke-linejoin: miter; stroke-miterlimit: 4; fill: rgb(255,255,255); fill-opacity: 0; fill-rule: nonzero; opacity: 1;"  paint-order="stroke"  x="-640" y="-512" rx="0" ry="0" width="1280" height="1024" />
</g>
<g transform="matrix(1.9211538461538462 0 0 1.9211538461538462 640 407.12530186581154)" id="logo-logo"  >
<g style=""  paint-order="stroke"   >
		<g transform="matrix(1.2266923493329842 0 0 -1.2266923493329842 17.689670228890407 -3.0353029504619258)"  >
<path style="stroke: none; stroke-width: 1; stroke-dasharray: none; stroke-linecap: butt; stroke-dashoffset: 0; stroke-linejoin: miter; stroke-miterlimit: 4; fill: rgb(127,127,127); fill-rule: nonzero; opacity: 1;"  paint-order="stroke"  transform=" translate(-178.7065, -130.93)" d="M 197.437 185.416 C 208.26100000000002 189.617 230.173 193.852 235.872 180.936 L 235.872 180.936 C 240.31900000000002 170.864 233.69500000000002 155.58100000000002 227.05900000000003 148.166 L 227.05900000000003 148.166 L 227.05900000000003 176.945 L 188.24400000000003 176.945 L 182.72200000000004 193.667 L 144.84200000000004 193.667 L 139.32600000000005 176.945 L 108.97100000000005 176.945 C 101.75700000000005 176.945 95.84800000000004 171.043 95.84800000000004 163.82299999999998 L 95.84800000000004 163.82299999999998 L 95.84800000000004 103.73499999999999 C 95.84800000000004 91.08399999999999 105.65300000000005 83.28299999999999 118.48900000000003 82.16999999999999 L 118.48900000000003 82.16999999999999 C 147.98400000000004 79.60899999999998 193.02200000000005 92.00699999999999 215.21000000000004 111.76999999999998 L 215.21000000000004 111.76999999999998 C 209.71 98.648 195.954 81.081 171.193 64.787 L 171.193 64.787 C 202.936 70.50200000000001 251.827 98.858 261.565 137.166 L 261.565 137.166 C 255.425 128.488 247.489 121.08099999999999 233.414 113.46199999999999 L 233.414 113.46199999999999 C 246.36499999999998 129.706 256.12 156.618 251.149 176.773 L 251.149 176.773 C 248.101 189.127 238.815 197.072 226.216 197.073 L 226.216 197.073 C 217.809 197.073 207.929 193.538 197.437 185.416 M 128.17700000000002 136.896 C 128.17700000000002 155.27599999999998 143.079 170.172 161.454 170.172 L 161.454 170.172 C 179.834 170.172 194.73700000000002 155.276 194.73700000000002 136.896 L 194.73700000000002 136.896 C 194.73700000000002 118.51799999999999 179.83400000000003 103.61899999999999 161.454 103.61899999999999 L 161.454 103.61899999999999 C 143.079 103.61899999999999 128.17700000000002 118.51799999999999 128.17700000000002 136.896 M 107.70300000000002 166.047 L 122.51700000000002 166.047 L 122.51700000000002 156.523 L 107.70300000000003 156.523 z" stroke-linecap="round" />
</g>
		<g transform="matrix(1.2266923493329842 0 0 -1.2266923493329842 -3.470159450928918 -10.354362852757163)"  >
<path style="stroke: none; stroke-width: 1; stroke-dasharray: none; stroke-linecap: butt; stroke-dashoffset: 0; stroke-linejoin: miter; stroke-miterlimit: 4; fill: rgb(148,148,148); fill-rule: nonzero; opacity: 1;"  paint-order="stroke"  transform=" translate(-161.457, -136.8965)" d="M 140.175 136.896 C 140.175 125.14299999999999 149.704 115.618 161.454 115.618 L 161.454 115.618 C 173.209 115.618 182.739 125.143 182.739 136.896 L 182.739 136.896 C 182.739 148.648 173.209 158.17499999999998 161.454 158.17499999999998 L 161.454 158.17499999999998 C 149.704 158.17499999999998 140.175 148.648 140.175 136.896" stroke-linecap="round" />
</g>
		<g transform="matrix(1.2266923493329842 0 0 -1.2266923493329842 -58.4114095981887 38.29672180000114)"  >
<path style="stroke: none; stroke-width: 1; stroke-dasharray: none; stroke-linecap: butt; stroke-dashoffset: 0; stroke-linejoin: miter; stroke-miterlimit: 4; fill: rgb(148,148,148); fill-rule: nonzero; opacity: 1;"  paint-order="stroke"  transform=" translate(-116.66887510696206, -97.23612005289075)" d="M 80.62 67.843 C 98.147 55.65 138.853 56.068 166.331 78.339 L 166.331 78.339 C 143.846 69.401 99.993 63.726 83.051 88.107 L 83.051 88.107 C 75.297 99.276 75.369 115.276 91.626 134.63400000000001 L 91.626 134.63400000000001 C 66.711 118.652 56.752 84.441 80.62 67.843" stroke-linecap="round" />
</g>
</g>
</g>
<g transform="matrix(1.9211538461538462 0 0 1.9211538461538462 640.1104663461539 656.3471115685596)" id="text-logo"  >
<g style=""  paint-order="stroke"   >
		<g transform="matrix(1 0 0 1 0 0)" id="text-logo-path-0"  >
<path style="stroke: none; stroke-width: 0; stroke-dasharray: none; stroke-linecap: butt; stroke-dashoffset: 0; stroke-linejoin: miter; stroke-miterlimit: 4; fill: rgb(127,127,127); fill-rule: nonzero; opacity: 1;"  paint-order="stroke"  transform=" translate(-102.80999999999999, 15.409999999999998)" d="M 22.36 0 L 34.32 -30.82 L 26.22 -30.82 L 18.31 -10.44 L 10.4 -30.82 L 2.3 -30.82 L 14.26 0 Z M 55.48 0 L 55.48 -30.82 L 48.12 -30.82 L 48.12 0 Z M 82.02 -31.28 C 74.89 -31.28 70.01 -27.55 70.01 -21.71 C 70.01 -17.07 72.73 -14.12 78.15 -12.93 L 84.5 -11.55 C 86.53 -11.13 87.54 -10.4 87.54 -9.34 C 87.54 -7.73 85.97 -6.9 82.85 -6.9 C 80.32 -6.9 77.74 -8.37 76.87 -10.72 L 69.28 -8.05 C 70.56 -2.53 75.81 0.46 82.43 0.46 C 86.71 0.46 90.76 -0.92 93.15 -3.91 C 94.35 -5.38 94.94 -7.22 94.94 -9.38 C 94.94 -14.03 92.18 -16.97 86.62 -18.22 L 80.32 -19.64 C 78.71 -20.01 77.6 -20.75 77.6 -21.71 C 77.6 -23.32 79.49 -23.92 81.93 -23.92 C 84.92 -23.92 86.85 -23.18 87.26 -20.65 L 94.35 -23.41 C 92.83 -28.57 88.09 -31.28 82.02 -31.28 Z M 116.1 0 L 116.1 -30.82 L 108.74 -30.82 L 108.74 0 Z M 145.91 0.51 C 151.8 0.51 157 -2.62 159.8 -7.5 C 161.23 -9.94 161.92 -12.56 161.92 -15.41 C 161.92 -21.11 158.88 -26.27 153.96 -29.16 C 151.52 -30.59 148.81 -31.33 145.91 -31.33 C 140.02 -31.33 134.83 -28.24 132.02 -23.37 C 130.59 -20.93 129.9 -18.26 129.9 -15.41 C 129.9 -9.71 132.94 -4.55 137.86 -1.66 C 140.3 -0.23 143.01 0.51 145.91 0.51 Z M 137.49 -15.41 C 137.49 -20.15 141.27 -23.92 145.91 -23.92 C 150.6 -23.92 154.33 -20.15 154.33 -15.41 C 154.33 -10.67 150.56 -6.9 145.91 -6.9 C 141.22 -6.9 137.49 -10.67 137.49 -15.41 Z M 183.08 0 L 183.08 -19.04 L 194.3 0 L 203.32 0 L 203.32 -30.82 L 195.96 -30.82 L 195.96 -11.68 L 184.69 -30.82 L 175.72 -30.82 L 175.72 0 Z" stroke-linecap="round" />
</g>
</g>
</g>
</svg>