<?xml version="1.0" encoding="utf-8"?>
<svg version="1.0" xmlns="http://www.w3.org/2000/svg" width="300.000000pt" height="300.000000pt" viewBox="0 0 300.000000 300.000000" preserveAspectRatio="xMidYMid meet">
  <g transform="matrix(0.1, 0, 0, -0.107118, 0, 309.686859)" fill="#000000" stroke="none" style="">
    <path d="M1124 1759 c-3 -6 -7 -36 -8 -68 -3 -60 -35 -145 -83 -213 -43 -64 -53 -52 -53 65 0 127 -11 167 -49 190 -73 43 -168 -8 -187 -100 -5 -26 -3 -32 16 -38 25 -8 35 -1 58 46 14 27 23 34 47 34 l30 0 6 -130 c8 -158 5 -141 29 -165 22 -22 67 -26 90 -7 28 22 86 101 113 152 53 101 70 182 47 226 -12 21 -45 26 -56 8z"/>
    <path d="M1261 1676 c-28 -33 22 -83 55 -55 8 7 14 24 12 38 -2 20 -9 27 -29 29 -14 2 -31 -4 -38 -12z"/>
    <path d="M1640 1675 c-28 -34 26 -84 57 -52 23 23 9 67 -21 67 -13 0 -29 -7 -36 -15z"/>
    <path d="M1411 1584 c-11 -15 -21 -30 -21 -34 0 -12 -104 -110 -117 -110 -17 0 -16 12 4 78 17 52 17 55 -1 68 -30 21 -52 1 -76 -71 -24 -72 -21 -108 10 -125 33 -18 72 0 138 63 34 33 64 58 67 55 3 -2 8 -19 11 -37 7 -32 6 -33 -26 -29 -23 2 -36 -2 -44 -15 -28 -45 86 -67 127 -24 12 13 34 31 48 41 26 16 26 16 32 -14 12 -56 79 -59 135 -7 l24 22 19 -27 c41 -56 128 -41 173 30 13 22 34 42 45 45 24 6 24 4 12 -41 -13 -43 -5 -62 25 -62 18 0 29 10 44 43 21 44 85 115 95 105 3 -3 0 -26 -7 -51 -17 -65 -2 -97 48 -97 29 0 44 8 77 40 30 31 37 44 29 52 -9 9 -19 5 -40 -15 -37 -36 -56 -36 -48 1 16 63 17 81 7 100 -16 31 -47 33 -86 6 -24 -16 -35 -19 -35 -10 0 7 -6 19 -14 25 -18 15 -56 -2 -56 -23 0 -16 -17 -31 -45 -40 -16 -5 -23 0 -32 23 -33 88 -146 72 -198 -28 -17 -34 -70 -81 -91 -81 -16 0 -11 36 13 83 16 31 10 62 -12 71 -24 9 -41 -3 -54 -39 -16 -45 -78 -95 -92 -74 -10 16 -12 28 -13 84 -1 35 -4 40 -27 43 -19 2 -33 -4 -48 -24z m444 -119 c-15 -24 -45 -32 -55 -15 -9 14 4 65 21 86 9 12 14 8 29 -18 13 -27 14 -37 5 -53z"/>
  </g>
</svg>